<svg xmlns="http://www.w3.org/2000/svg" style="display: none;">
    <symbol id="icon-arrow" viewBox="0 0 48 20">
        <style>
            rect {
                transition: fill var(--transition-time);
            }
            path {
                transition: stroke var(--transition-time);
            }
        </style>
        <rect x="48" width="20" height="48" rx="10" transform="rotate(90 48 0)" fill="var(--bg)"/>
        <path d="M34 0V0C34 5.52285 38.4772 10 44 10V10" stroke="var(--arrow)" stroke-width="2" fill="none"/>
        <path d="M33.875 20V20C33.875 14.4772 38.3522 10 43.875 10H44H-10" stroke="var(--arrow)" stroke-width="2" fill="none"/>
    </symbol>

    <symbol id="icon-unchecked" viewBox="0 0 24 24">
        <path d="M18.364 5.63604C19.1997 6.47177 19.8626 7.46392 20.3149 8.55585C20.7672 9.64778 21 10.8181 21 12C21 13.1819 20.7672 14.3522 20.3149 15.4441C19.8626 16.5361 19.1997 17.5282 18.364 18.364C17.5282 19.1997 16.5361 19.8626 15.4442 20.3149C14.3522 20.7672 13.1819 21 12 21C10.8181 21 9.64778 20.7672 8.55585 20.3149C7.46392 19.8626 6.47177 19.1997 5.63604 18.364C4.80031 17.5282 4.13738 16.5361 3.68508 15.4442C3.23279 14.3522 3 13.1819 3 12C3 10.8181 3.23279 9.64778 3.68508 8.55585C4.13738 7.46392 4.80031 6.47177 5.63604 5.63604C6.47177 4.80031 7.46392 4.13738 8.55585 3.68508C9.64778 3.23279 10.8181 3 12 3C13.1819 3 14.3522 3.23279 15.4442 3.68508C16.5361 4.13738 17.5282 4.80031 18.364 5.63604L18.364 5.63604Z" stroke="white" stroke-width="2" stroke-linecap="round"/>
    </symbol>

    <symbol id="icon-checked" viewBox="0 0 24 24" >
        <path d="M21 12C21 13.78 20.4722 15.5201 19.4832 17.0001C18.4943 18.4802 17.0887 19.6337 15.4442 20.3149C13.7996 20.9961 11.99 21.1743 10.2442 20.8271C8.49836 20.4798 6.89471 19.6226 5.63604 18.364C4.37737 17.1053 3.5202 15.5016 3.17293 13.7558C2.82567 12.01 3.0039 10.2004 3.68508 8.55585C4.36627 6.91131 5.51983 5.50571 6.99987 4.51677C8.47991 3.52784 10.22 3 12 3" stroke="white" stroke-width="2" stroke-linecap="round"/>
        <path fill-rule="evenodd" clip-rule="evenodd" d="M9.72366 10.9795C9.34166 10.5805 8.70966 10.5645 8.30966 10.9465C7.91066 11.3275 7.89466 11.9605 8.27666 12.3605L10.4997 14.6905C10.6877 14.8875 10.9477 14.9995 11.2197 15.0005H11.2237C11.4947 15.0005 11.7537 14.8905 11.9417 14.6955L18.7187 7.69552C19.1027 7.29852 19.0927 6.66552 18.6957 6.28152C18.2977 5.89652 17.6647 5.90852 17.2817 6.30452L11.2287 12.5575L9.72366 10.9795Z" fill="white"/>
    </symbol>
</svg>
