<svg xmlns="http://www.w3.org/2000/svg" style="display: none;">
    <symbol id="icon-arrow" viewBox="0 0 48 20">
        <style>
            rect {
                transition: fill var(--transition-time);
            }
            path {
                transition: stroke var(--transition-time);
            }
        </style>
        <rect x="48" width="20" height="48" rx="10" transform="rotate(90 48 0)" fill="var(--bg)"/>
        <path d="M34 0V0C34 5.52285 38.4772 10 44 10V10" stroke="var(--arrow)" stroke-width="2" fill="none"/>
        <path d="M33.875 20V20C33.875 14.4772 38.3522 10 43.875 10H44H-10" stroke="var(--arrow)" stroke-width="2" fill="none"/>
    </symbol>

    <symbol id="icon-unchecked" viewBox="0 0 24 24">
        <path d="M18.364 5.63604C19.1997 6.47177 19.8626 7.46392 20.3149 8.55585C20.7672 9.64778 21 10.8181 21 12C21 13.1819 20.7672 14.3522 20.3149 15.4441C19.8626 16.5361 19.1997 17.5282 18.364 18.364C17.5282 19.1997 16.5361 19.8626 15.4442 20.3149C14.3522 20.7672 13.1819 21 12 21C10.8181 21 9.64778 20.7672 8.55585 20.3149C7.46392 19.8626 6.47177 19.1997 5.63604 18.364C4.80031 17.5282 4.13738 16.5361 3.68508 15.4442C3.23279 14.3522 3 13.1819 3 12C3 10.8181 3.23279 9.64778 3.68508 8.55585C4.13738 7.46392 4.80031 6.47177 5.63604 5.63604C6.47177 4.80031 7.46392 4.13738 8.55585 3.68508C9.64778 3.23279 10.8181 3 12 3C13.1819 3 14.3522 3.23279 15.4442 3.68508C16.5361 4.13738 17.5282 4.80031 18.364 5.63604L18.364 5.63604Z" stroke="white" stroke-width="2" stroke-linecap="round"/>
    </symbol>

    <symbol id="icon-checked" viewBox="0 0 24 24">
        <path d="M21 12C21 13.78 20.4722 15.5201 19.4832 17.0001C18.4943 18.4802 17.0887 19.6337 15.4442 20.3149C13.7996 20.9961 11.99 21.1743 10.2442 20.8271C8.49836 20.4798 6.89471 19.6226 5.63604 18.364C4.37737 17.1053 3.5202 15.5016 3.17293 13.7558C2.82567 12.01 3.0039 10.2004 3.68508 8.55585C4.36627 6.91131 5.51983 5.50571 6.99987 4.51677C8.47991 3.52784 10.22 3 12 3" stroke="white" stroke-width="2" stroke-linecap="round"/>
        <path fill-rule="evenodd" clip-rule="evenodd" d="M9.72366 10.9795C9.34166 10.5805 8.70966 10.5645 8.30966 10.9465C7.91066 11.3275 7.89466 11.9605 8.27666 12.3605L10.4997 14.6905C10.6877 14.8875 10.9477 14.9995 11.2197 15.0005H11.2237C11.4947 15.0005 11.7537 14.8905 11.9417 14.6955L18.7187 7.69552C19.1027 7.29852 19.0927 6.66552 18.6957 6.28152C18.2977 5.89652 17.6647 5.90852 17.2817 6.30452L11.2287 12.5575L9.72366 10.9795Z" fill="white"/>
    </symbol>

    <symbol id="icon-location" viewBox="0 0 24 24">
        <rect width="24" height="24" rx="12" fill="#1F8B48"/>
        <path fill-rule="evenodd" clip-rule="evenodd" d="M12.0002 11.1662C11.311 11.1662 10.7502 10.6054 10.7502 9.91621C10.7502 9.22704 11.311 8.66621 12.0002 8.66621C12.6893 8.66621 13.2502 9.22704 13.2502 9.91621C13.2502 10.6054 12.6893 11.1662 12.0002 11.1662ZM12.0002 6.99954C10.3918 6.99954 9.0835 8.30788 9.0835 9.91621C9.0835 11.5245 10.3918 12.8329 12.0002 12.8329C13.6085 12.8329 14.9168 11.5245 14.9168 9.91621C14.9168 8.30788 13.6085 6.99954 12.0002 6.99954ZM12.0002 18.3716C10.6043 17.0516 7.00016 13.3458 7.00016 10.2683C7.00016 7.54746 9.24266 5.33329 12.0002 5.33329C14.7577 5.33329 17.0002 7.54746 17.0002 10.2683C17.0002 13.3458 13.396 17.0516 12.0002 18.3716ZM12.0002 3.66663C8.32433 3.66663 5.3335 6.62746 5.3335 10.2683C5.3335 14.8308 11.2077 19.9175 11.4577 20.1316C11.6143 20.2658 11.8068 20.3333 12.0002 20.3333C12.1935 20.3333 12.386 20.2658 12.5427 20.1316C12.7927 19.9175 18.6668 14.8308 18.6668 10.2683C18.6668 6.62746 15.676 3.66663 12.0002 3.66663Z" fill="white"/>
    </symbol>

    <symbol id="icon-clock" viewBox="0 0 24 24">
        <rect width="24" height="24" rx="12" fill="#1F8B48"/>
        <path fill-rule="evenodd" clip-rule="evenodd" d="M15.3332 11.1666H12.8332V8.66663C12.8332 8.20579 12.4598 7.83329 11.9998 7.83329C11.5398 7.83329 11.1665 8.20579 11.1665 8.66663V12C11.1665 12.4608 11.5398 12.8333 11.9998 12.8333H15.3332C15.794 12.8333 16.1665 12.4608 16.1665 12C16.1665 11.5391 15.794 11.1666 15.3332 11.1666ZM11.9998 18.6666C8.324 18.6666 5.33317 15.6758 5.33317 12C5.33317 8.32413 8.324 5.33329 11.9998 5.33329C15.6757 5.33329 18.6665 8.32413 18.6665 12C18.6665 15.6758 15.6757 18.6666 11.9998 18.6666ZM11.9998 3.66663C7.40484 3.66663 3.6665 7.40496 3.6665 12C3.6665 16.595 7.40484 20.3333 11.9998 20.3333C16.5948 20.3333 20.3332 16.595 20.3332 12C20.3332 7.40496 16.5948 3.66663 11.9998 3.66663Z" fill="white"/>
    </symbol>

    <symbol id="icon-phone" viewBox="0 0 24 24">
        <rect width="24" height="24" rx="12" fill="#1F8B48"/>
        <path fill-rule="evenodd" clip-rule="evenodd" d="M7.50033 5.33329C6.30533 5.33329 5.33366 6.30496 5.33366 7.49996C5.33366 13.6566 10.3428 18.6666 16.5003 18.6666C17.6945 18.6666 18.667 17.695 18.667 16.5C18.667 16.4075 18.6612 16.3166 18.6495 16.2266L14.7995 15.3433C14.7228 15.49 14.6387 15.6491 14.562 15.7975C14.182 16.5225 13.907 17.0491 13.2053 16.7666C10.4503 15.8 8.20116 13.55 7.22199 10.7616C6.92449 10.1075 7.49116 9.81079 8.20949 9.43579C8.35533 9.35913 8.51283 9.27663 8.65699 9.20163L7.77366 5.35079C7.68116 5.33913 7.59116 5.33329 7.50033 5.33329ZM16.5003 20.3333C9.42366 20.3333 3.66699 14.5766 3.66699 7.49996C3.66699 5.38579 5.38616 3.66663 7.50033 3.66663C7.71699 3.66663 7.93116 3.68496 8.13866 3.72079C8.34116 3.75329 8.54449 3.80496 8.74283 3.87329C9.01366 3.96746 9.21783 4.19496 9.28199 4.47496L10.4228 9.44496C10.4862 9.71829 10.407 10.005 10.212 10.2083C10.0987 10.3266 10.0962 10.3291 9.06283 10.87C9.89949 12.6816 11.3537 14.1308 13.1287 14.9391C13.6703 13.905 13.6737 13.9016 13.792 13.7883C13.9953 13.5933 14.2837 13.5175 14.5553 13.5775L19.5262 14.7183C19.8053 14.7825 20.0328 14.9858 20.1262 15.2566C20.1945 15.4533 20.2462 15.6566 20.2803 15.8658C20.3153 16.0716 20.3337 16.285 20.3337 16.5C20.3337 18.6141 18.6137 20.3333 16.5003 20.3333Z" fill="white"/>
    </symbol>

    <symbol id="icon-email" viewBox="0 0 24 24">
        <rect width="24" height="24" rx="12" fill="#1F8B48"/>
        <path fill-rule="evenodd" clip-rule="evenodd" d="M17.8332 17H6.1665C5.70734 17 5.33317 16.6267 5.33317 16.1667V8.04171L11.4998 12.6667C11.6482 12.7784 11.824 12.8334 11.9998 12.8334C12.1757 12.8334 12.3515 12.7784 12.4998 12.6667L18.6665 8.04171V16.1667C18.6665 16.6267 18.2923 17 17.8332 17ZM17.2773 7.00004L11.9998 10.9584L6.72234 7.00004H17.2773ZM17.8332 5.33337H6.1665C4.78817 5.33337 3.6665 6.45504 3.6665 7.83337V16.1667C3.6665 17.545 4.78817 18.6667 6.1665 18.6667H17.8332C19.2115 18.6667 20.3332 17.545 20.3332 16.1667V7.83337C20.3332 6.45504 19.2115 5.33337 17.8332 5.33337Z" fill="white"/>
    </symbol>
</svg>
